<?xml version="1.0" encoding="UTF-8"?>
<!DOCTYPE svg PUBLIC "-//W3C//DTD SVG 1.1//EN" "http://www.w3.org/Graphics/SVG/1.1/DTD/svg11.dtd">
<!-- Creator: CorelDRAW 2019 (64 Bit Versão de avaliação) -->
<svg xmlns="http://www.w3.org/2000/svg" xml:space="preserve" width="105.438mm" height="83.9238mm" version="1.1" style="shape-rendering:geometricPrecision; text-rendering:geometricPrecision; image-rendering:optimizeQuality; fill-rule:evenodd; clip-rule:evenodd"
viewBox="0 0 10542.78 8391.54"
 xmlns:xlink="http://www.w3.org/1999/xlink"
 xmlns:xodm="http://www.corel.com/coreldraw/odm/2003">
 <defs>
  <style type="text/css">
   <![CDATA[
    .fil0 {fill:#373435}
    .fil2 {fill:#FFF212}
    .fil1 {fill:#EDB850}
   ]]>
  </style>
 </defs>
 <g id="Camada_x0020_1">
  <metadata id="CorelCorpID_0Corel-Layer"/>
  <path class="fil0" d="M3815.2 0.01c2107.07,0 3815.19,1708.12 3815.19,3815.19 0,2107.07 -1708.12,3815.19 -3815.19,3815.19 -2107.07,0 -3815.19,-1708.12 -3815.19,-3815.19 0,-2107.07 1708.12,-3815.19 3815.19,-3815.19zm0 461.56c1852.15,0 3353.61,1501.47 3353.61,3353.62 0,1852.15 -1501.46,3353.61 -3353.61,3353.61 -1852.15,0 -3353.61,-1501.46 -3353.61,-3353.61 0,-1852.15 1501.46,-3353.62 3353.61,-3353.62z"/>
  <path class="fil0" d="M10037.74 8391.55c-509.37,-558.05 -2610.66,-2107.66 -2753.98,-2369.65 60.44,-167.75 123.69,-248.71 270.29,-350.48 818.2,569.05 2149.79,1639.13 2987.96,2067.51 17.06,254.6 -252.85,606.26 -504.27,652.62z"/>
  <g id="_2076723655184">
   <path class="fil1" d="M3460.63 5298.26c45.38,64.02 34.91,51.66 18.42,177.64 77.52,-5.76 99.07,-2.65 143.17,28.33 7.15,94.94 11.27,40.79 -20.45,83.85 -21.79,240.86 26.26,41.65 52.34,226.53 39.6,280.62 -284.22,167.17 -437.84,508.68 58.2,97.12 54.37,42.54 83.56,184.92 130.56,-24.18 113.96,19.19 291.47,197.04 33.51,33.57 8.49,15.83 57.64,40.05 82.52,40.67 -18.2,-19.23 50.31,16.17l36.46 0c31.53,-60.87 82.28,-185.7 174.69,-254.05 36.21,-26.79 7.72,-8.92 39.14,-18.93 93.36,-29.77 28.92,58 128.11,-81.78 51.67,-72.83 87.1,-88.67 124.65,-145.35 113.99,-172.14 -12.52,-352.4 173.68,-478.7 31.93,-21.65 3.74,-2.09 30.87,-19.52 293.29,-188.48 265.94,-107.49 405.65,-183.35 219.3,-119.09 280.61,116.01 532.3,-220.47 88.74,-118.63 179.23,-109.78 232.45,-283.45 48.77,-159.18 2.77,-57.11 85.27,-176.5 99.96,-144.65 103.34,-546.25 150.77,-628.73 46.96,-81.65 148.82,-67.41 252.93,-258.44 103.77,-190.38 51.2,38.17 283.24,-228.35 90.37,-103.8 183.87,-153.15 152.39,-376.98 -33.31,-236.87 -20.81,-223.85 -225.1,-290.35 -143.06,-46.57 -146.18,-186.1 -255.5,-279.39l-142.75 -100.98c-100.28,-41.71 -126.81,7.69 -244.16,-21.12 -244.52,-60.01 -27.9,-125.56 -401.97,-44.88l36.73 -170.01c-198.05,-62.1 -357.32,-288.35 -606.78,-91.7 -24.33,26.93 -5.85,13.96 -44.67,38.85 -40.1,25.72 27.23,-5.75 -47.84,15.85 -26.37,-115.97 -4.94,-60.3 10.77,-84.21 90.58,-35.89 138.61,-77.02 178.85,-154.09 -397.24,-99.99 -238.82,10.09 -474.34,57.65 28.86,-89.2 86.84,-133.63 142.33,-177.83 131.42,-104.7 73.05,-73.78 149.88,-187.41 -166.26,-113.75 -59.28,73.41 -146.11,-240.53l-45.78 -105c-130.55,78.43 -132.33,255.12 -334.4,238.38 -132.8,-11.02 -123.81,-61.35 -209.66,-77.17 -143.96,-26.53 -63.12,46.48 -193.37,72.01 -59.2,11.6 -125.67,-2.76 -232.99,19.36 -99.65,20.54 -146.99,7.91 -189.7,-61.38 -53.23,-86.33 -42.07,-141.21 -9.89,-238.89 45.94,-139.46 1.62,-63.52 -31.96,-239.7l-47.45 0c-165.37,218.58 -111.31,33.08 -357.22,198.94 -54.84,-27.62 -93.11,-54.8 -172.12,-60.41 -11.73,244.29 51.99,118.6 94.84,250.95 -438.88,361.16 -484.4,125.05 -556.18,17.3l-328.24 19.06c-34.71,165.26 12.99,-18.18 58.07,137.86l-117.58 44.88c4.73,191.65 128.23,85.34 44.2,334.77 -34.37,102 -42.03,237.9 -90.36,325.17 -125.87,48.14 -269.32,5.54 -374.47,113.56 -70.07,71.99 -44.79,81.09 -80.49,162.75 -59.62,136.38 -161.41,76.71 -7.31,374.7 40.85,78.97 98.13,118.83 166.69,161.72l183.92 -60.35 5.14 198.32c461.27,53.02 452.28,-150.88 613.89,-146.18 278.4,8.11 -159.93,251.14 282.31,419.19 77.54,29.47 136.14,77.68 217.76,122.49 107.54,59.03 121.31,10.39 228.77,105.73l-18.68 271.83c100.37,65.77 103.5,63.39 257.56,81.03 -4.43,250.29 -2.14,77.46 82.8,237.34 18.34,74.99 -99,240.83 -76.22,586.13 140.6,36.97 190.98,-9.49 267.51,117.18z"/>
   <path class="fil2" d="M3601.77 5588.08c31.72,-43.07 27.6,11.09 20.45,-83.85 -44.1,-30.98 -65.64,-34.09 -143.17,-28.33 16.49,-125.98 26.96,-113.62 -18.42,-177.64l18.42 177.64c4.02,2.14 13.8,9.88 53.36,19.63 0.4,0.1 56.2,6.46 68.16,8.02l1.19 84.53z"/>
   <path class="fil2" d="M4662.34 2408.43l-56.36 29.24c-31.78,-34.6 -14.15,-1.2 -25.37,-58.75 -15.71,23.91 -37.14,-31.76 -10.77,84.21 75.06,-21.6 7.74,9.87 47.84,-15.85 38.82,-24.89 20.34,-11.92 44.67,-38.85z"/>
  </g>
 </g>
</svg>
