<?xml version="1.0" encoding="UTF-8" standalone="no"?>
<svg
   xmlns:xlink="http://www.w3.org/1999/xlink"
   xmlns="http://www.w3.org/2000/svg"
   width="201.538mm"
   height="50.9904mm"
   version="1.1"
   viewBox="0 0 20232.45 5118.93">
 <defs>
  <path
   id="pathHistorioscopioText"
   d="m 5862.7444,92.960973 c -173.8714,0 -351.4128,52.506517 -532.5288,157.553797 -177.4938,105.04729 -351.3336,259.0208 -521.5825,461.87072 -170.2491,199.22764 -335.068,445.54381 -494.45,738.95171 -155.7598,289.7856 -295.2382,619.4237 -418.3971,988.9004 -231.8285,-50.7125 -474.4949,-94.1984 -728.0571,-130.4216 -249.9403,-36.2232 -494.4833,-63.3889 -733.5565,-81.5005 32.6009,-83.3134 61.5915,-170.2332 86.9477,-260.7912 28.9786,-90.558 56.1443,-182.9526 81.5005,-277.1328 47.0902,-181.116 90.5762,-335.0377 130.4215,-461.8189 43.4678,-126.7812 86.9536,-233.67094 130.4217,-320.60664 43.4677,-86.93568 90.5516,-155.76236 141.264,-206.47486 50.7125,-50.71247 112.2916,-90.54859 184.7378,-119.52715 54.3349,-21.73391 88.7483,-41.65197 103.2374,-59.76357 18.1118,-18.1116 19.8848,-38.02963 5.3955,-59.76357 -112.2921,-47.09017 -239.048,-86.92625 -380.3184,-119.52715 -141.2705,-36.22321 -287.9965,-54.36825 -440.1338,-54.36825 -213.7169,0 -398.454,28.99059 -554.2138,86.94771 -152.1374,57.95712 -275.2955,137.6812 -369.4759,239.10617 -90.5579,101.42494 -152.137,220.93328 -184.7379,358.58144 -32.6009,134.02587 -32.6009,277.10197 0,429.23937 10.867,14.4893 21.7644,19.912 32.6314,16.2897 10.867,-3.6223 18.1145,-14.4678 21.7369,-32.5794 -25.3563,-123.1588 -30.8309,-239.0693 -16.3416,-347.7389 18.1116,-112.29196 59.7725,-208.28432 124.9743,-287.97535 65.2018,-83.31337 153.9465,-148.49027 266.2384,-195.58044 115.9142,-47.09016 258.9904,-70.65796 429.2395,-70.65796 148.5151,0 287.9933,14.49527 418.3969,43.47383 130.4034,25.35625 242.7159,54.34681 336.8964,86.94771 -68.8243,36.2232 -135.8779,83.30694 -201.0794,141.26406 -65.2021,57.95712 -128.554,135.80446 -190.1334,233.60709 -61.5795,97.80266 -123.1585,220.96066 -184.7379,369.47586 -61.5794,144.8928 -121.3855,324.2072 -179.3426,537.924 -18.1116,57.9572 -34.3799,112.2885 -48.8692,163.001 -14.4893,50.7125 -28.9845,101.446 -43.4739,152.1585 h -141.264 c -326.0088,0 -613.9859,30.7635 -863.9261,92.343 -249.94001,61.5795 -458.24497,143.0766 -624.87168,244.5015 -166.62674,97.8027 -293.38269,211.94 -380.31837,342.3436 C 41.660985,3021.6175 0,3155.621 0,3293.2692 c 0,141.2705 54.331394,260.8306 163.001,358.6333 108.66959,94.1804 277.08656,141.2641 505.2927,141.2641 351.3651,0 675.5804,-112.3125 972.6107,-336.8963 297.0301,-228.2063 546.9961,-599.5054 749.846,-1113.8748 257.1848,21.7338 508.9237,56.1472 755.2415,103.2374 249.9401,47.0901 481.7608,101.4734 695.4778,163.0529 -28.9787,79.6911 -54.3193,161.1881 -76.0533,244.5015 -21.734,79.6909 -43.4768,162.9609 -65.2108,249.8967 -61.5793,242.6954 -65.2292,418.412 -10.8945,527.0815 54.3349,108.6696 148.5542,163.0011 282.5802,163.0011 50.7125,0 105.0437,-14.4952 163.001,-43.4739 57.9572,-32.6009 114.0613,-72.4369 168.3963,-119.5272 54.3346,-50.7124 105.0683,-105.0439 152.1583,-163.001 50.7127,-61.5793 95.9715,-123.1584 135.8171,-184.738 3.6222,-18.1115 0.024,-30.7819 -10.8427,-38.0266 -10.8669,-7.2444 -21.7125,-5.4714 -32.5794,5.3954 -130.4036,202.8498 -266.2839,304.317 -407.5544,304.317 -159.382,0 -182.898,-211.9546 -70.606,-635.7663 10.8669,-39.8453 19.8875,-76.0317 27.1321,-108.6326 10.8672,-36.2231 21.7643,-74.2864 32.6315,-114.1317 14.4891,7.2444 23.5617,10.8942 27.1839,10.8942 36.2234,3.6225 74.2346,-0.026 114.0802,-10.8942 39.8453,-10.8671 74.2587,-23.5375 103.2374,-38.0269 28.9785,-14.4892 50.7212,-28.9844 65.2106,-43.4737 18.1118,-14.4894 23.5344,-25.3349 16.2897,-32.5795 l -130.4214,-32.6313 c -43.468,-14.4893 -90.5516,-28.9327 -141.2641,-43.422 112.2918,-398.4552 222.7795,-735.3409 331.4491,-1010.6373 108.6698,-275.2963 220.9823,-498.09651 336.8965,-668.34556 115.9142,-170.24902 237.2473,-293.40711 364.0287,-369.47583 130.4033,-76.06872 275.3045,-114.07995 434.6865,-114.07995 152.1373,0 251.7276,30.76358 298.8179,92.34303 50.7124,57.95712 61.6098,128.60869 32.6314,211.92203 7.2444,21.73394 21.7399,28.98159 43.4739,21.73694 18.1115,-39.84551 36.2045,-92.35203 54.3163,-157.5538 18.1116,-68.82408 27.1839,-128.63012 27.1839,-179.34259 0,-159.38208 -81.497,-239.054297 -244.5012,-239.054297 z m 5.7582,1509.133927 c -2.0372,0 -3.9991,0.4434 -5.8103,1.3488 -83.3133,54.3348 -164.8104,121.3885 -244.5015,201.0795 -76.0687,76.0688 -133.9979,139.4208 -173.8435,190.1333 -10.8669,18.1116 -16.2897,39.8545 -16.2897,65.2108 0,21.7339 3.598,43.4768 10.8424,65.2107 7.2447,18.1116 16.3173,32.607 27.1842,43.4739 14.4894,10.8669 27.1598,10.8669 38.0267,0 50.7124,-94.1803 110.4667,-188.3478 179.2907,-282.5282 68.8242,-97.8025 141.3005,-181.1246 217.3694,-249.9487 3.6222,-7.2446 -0.027,-14.4922 -10.8945,-21.7369 -8.1502,-8.1502 -15.261,-12.2432 -21.3739,-12.2432 z m 5591.0064,0 c -2.037,0 -3.947,0.4434 -5.758,1.3488 -83.313,54.3348 -164.81,121.3885 -244.501,201.0795 -76.069,76.0688 -134.051,139.4208 -173.896,190.1333 -10.867,18.1116 -16.29,39.8545 -16.29,65.2108 0,21.7339 3.598,43.4768 10.843,65.2107 7.245,18.1116 16.317,32.607 27.184,43.4739 14.489,10.8669 27.16,10.8669 38.027,0 50.712,-94.1803 110.518,-188.3478 179.342,-282.5282 68.824,-97.8025 141.249,-181.1246 217.318,-249.9487 3.622,-7.2446 -0.03,-14.4922 -10.895,-21.7369 -8.15,-8.1502 -15.261,-12.2432 -21.374,-12.2432 z m 7672.045,0 c -2.037,0 -3.947,0.4434 -5.758,1.3488 -83.313,54.3348 -164.81,121.3885 -244.502,201.0795 -76.068,76.0688 -134.049,139.4208 -173.895,190.1333 -10.867,18.1116 -16.29,39.8545 -16.29,65.2108 0,21.7339 3.598,43.4768 10.843,65.2107 7.245,18.1116 16.317,32.607 27.184,43.4739 14.489,10.8669 27.16,10.8669 38.027,0 50.712,-94.1803 110.466,-188.3478 179.29,-282.5282 68.824,-97.8025 141.301,-181.1246 217.37,-249.9487 3.622,-7.2446 -0.03,-14.4922 -10.895,-21.7369 -8.15,-8.1502 -15.261,-12.2432 -21.374,-12.2432 z m -2971.162,101.3698 c -13.075,0.3398 -24.368,3.2302 -33.877,8.6637 -50.712,61.5794 -110.466,121.3336 -179.29,179.2907 -65.202,57.9572 -123.183,103.2679 -173.896,135.8688 -10.867,10.867 -16.29,23.5373 -16.29,38.0266 0,14.4893 7.248,21.7369 21.737,21.7369 47.091,-14.4892 99.598,-30.8094 157.554,-48.921 l 173.896,-65.2108 c 57.956,-21.7339 112.288,-43.425 163.001,-65.1589 54.334,-25.3562 99.593,-50.7489 135.817,-76.1052 7.244,-7.2446 9.069,-16.2652 5.447,-27.1322 0,-10.8669 -5.423,-18.1146 -16.29,-21.7369 -50.713,-21.734 -103.271,-41.652 -157.606,-59.7636 -31.695,-13.5837 -58.413,-20.124 -80.203,-19.5581 z m -8363.3728,34.8103 c -4.5279,-0.2258 -9.9505,0.1328 -16.2897,1.0375 -21.734,0 -50.7244,5.4227 -86.9477,16.2897 -36.2231,10.867 -74.2344,27.1872 -114.0799,48.921 -36.2231,18.1116 -65.2138,39.8026 -86.9478,65.1589 -50.7124,79.6911 -101.4459,168.4877 -152.1583,266.2903 -50.7125,97.8027 -99.6211,199.2178 -146.7114,304.2651 -14.4893,3.6223 -28.9327,5.3953 -43.422,5.3953 h -43.4737 c -28.9786,0 -59.7941,7.2477 -92.395,21.7369 -32.6009,10.867 -61.5915,25.3623 -86.9477,43.4739 -21.7338,14.4893 -38.0022,28.9846 -48.8691,43.4738 -7.2447,14.4893 -1.8221,23.5618 16.2897,27.1841 79.6911,-18.1116 166.611,-32.6068 260.7912,-43.4738 -79.6911,191.9831 -144.8679,380.318 -195.5804,565.0562 -50.7124,184.7383 -76.1053,329.6394 -76.1053,434.6868 0,79.6909 21.743,143.0947 65.2108,190.1849 47.0902,43.4678 117.7419,65.2109 211.9222,65.2109 90.558,0 182.9525,-36.2383 277.1327,-108.6847 94.1805,-76.0687 172.0277,-164.8134 233.607,-266.2383 3.6225,-18.1118 0.025,-30.7819 -10.8424,-38.0266 -7.2447,-7.2447 -16.3171,-7.2447 -27.1842,0 -115.9142,163.0042 -220.9791,244.5013 -315.1594,244.5013 -94.1804,0 -141.264,-61.5791 -141.264,-184.7377 0,-105.0474 23.5678,-240.8759 70.658,-407.5026 47.09,-170.2491 106.8443,-344.1407 179.2908,-521.6343 79.6908,-7.2446 153.9403,-12.6674 222.7643,-16.2897 72.4465,-3.6224 135.8503,-5.4472 190.1852,-5.4472 28.9787,-7.2447 45.2987,-16.2653 48.9211,-27.1323 3.6222,-14.4893 -3.6254,-25.3867 -21.7369,-32.6313 h -201.0795 c -68.8242,0 -137.6509,1.8248 -206.4749,5.4472 54.3347,-126.7812 110.4909,-248.1145 168.448,-364.0286 61.5796,-115.9143 123.1587,-220.9792 184.738,-315.1595 2.7167,-10.867 -2.7061,-16.6481 -16.2897,-17.3273 z m 9285.7648,517.2246 c -32.601,0 -70.612,10.8455 -114.08,32.5795 -43.468,18.1116 -88.778,41.6794 -135.868,70.6579 -43.468,28.9786 -85.077,61.5671 -124.923,97.7903 -39.846,32.6009 -72.486,63.3645 -97.842,92.343 -3.622,7.2447 -1.798,18.1421 5.448,32.6313 10.867,10.867 19.939,12.6918 27.183,5.4472 65.202,-72.4464 124.956,-123.1798 179.291,-152.1584 39.845,-21.734 61.589,-14.4863 65.211,21.7369 7.245,36.2232 -23.571,128.5658 -92.395,277.081 -54.335,126.7812 -108.666,255.4139 -163.001,385.8175 -54.334,130.4033 -105.016,260.809 -152.107,391.2126 -57.956,18.1115 -85.122,34.38 -81.5,48.8693 3.623,18.1116 16.293,41.6794 38.027,70.6578 -94.181,260.8072 -170.255,512.546 -228.212,755.2416 -61.579,246.3175 -92.395,461.8701 -92.395,646.6086 0,28.9785 9.072,50.6695 27.184,65.1588 18.111,14.4894 41.679,21.737 70.658,21.737 32.601,0 72.437,-3.5981 119.527,-10.8425 47.091,-7.2447 94.174,-18.1421 141.264,-32.6314 47.09,-10.8669 90.576,-23.5373 130.422,-38.0267 43.468,-10.8668 76.056,-21.7125 97.79,-32.5793 7.245,-14.4894 9.069,-28.9846 5.447,-43.4739 0,-14.4894 -7.247,-21.737 -21.737,-21.737 -25.356,18.1116 -52.522,32.607 -81.5,43.4739 -25.356,10.8669 -52.522,18.1148 -81.501,21.737 -79.69,18.1115 -119.579,-14.4769 -119.579,-97.7902 0,-173.8714 23.568,-362.2584 70.658,-565.1082 50.713,-202.85 106.869,-393.0098 168.448,-570.5036 43.468,14.4894 95.975,21.737 157.554,21.737 130.404,0 258.984,-23.5679 385.766,-70.6581 126.781,-50.7125 239.094,-119.5391 336.896,-206.4747 97.803,-90.558 175.651,-195.5711 233.607,-315.1075 61.58,-123.1589 92.395,-258.9875 92.395,-407.5026 0,-105.0474 -25.341,-195.6169 -76.053,-271.6856 -47.091,-79.6911 -110.494,-119.5272 -190.185,-119.5272 -57.957,0 -115.939,14.4434 -173.896,43.422 -57.957,25.3562 -114.061,59.7695 -168.396,103.2374 -50.712,43.4679 -99.621,92.3765 -146.711,146.7114 -47.091,50.7125 -88.752,101.4459 -124.975,152.1583 76.069,-159.382 137.648,-302.4582 184.738,-429.2394 18.112,-39.8455 19.937,-76.0837 5.448,-108.6846 -10.867,-36.2232 -36.26,-54.3164 -76.106,-54.3164 z m -15284.3259,59.7636 h 152.1585 c 50.7125,0 101.4459,1.8248 152.1585,5.4472 -83.3134,253.5624 -166.6354,467.2382 -249.9487,641.1095 -83.3134,170.2492 -175.7079,307.9025 -277.1328,412.9498 -97.8027,101.4249 -208.2904,175.6744 -331.4492,222.7646 -123.1589,43.4678 -264.41016,65.2106 -423.79222,65.2106 -173.87136,0 -309.69986,-39.836 -407.50249,-119.5271 -94.18033,-83.3134 -141.26406,-202.8735 -141.26406,-358.6333 0,-123.1589 28.93869,-237.2444 86.89581,-342.2917 57.95712,-105.0471 146.70185,-195.6168 266.23843,-271.6856 123.15886,-79.691 280.73027,-141.27 472.71323,-184.7379 195.6053,-47.0901 429.251,-70.6061 700.925,-70.6061 z m 3651.3364,86.9477 c -239.0731,115.9143 -425.6351,228.1749 -559.6609,336.8444 -3.6224,10.8672 -1.7982,23.5373 5.4473,38.0267 7.2444,10.8671 16.2652,12.6919 27.1321,5.4472 32.6009,-28.9784 72.4372,-59.7421 119.5272,-92.3429 50.7124,-32.6009 96.0233,-59.7666 135.8689,-81.5005 -43.4681,65.2017 -86.9539,143.049 -130.4217,233.607 -39.8455,86.9358 -77.8568,177.5052 -114.0799,271.6857 -32.6009,90.558 -59.7667,181.1275 -81.5005,271.6855 -18.1115,86.9358 -27.1842,163.01 -27.1842,228.2118 0,119.5365 63.4039,179.2908 190.1852,179.2908 72.4462,0 146.6957,-28.9907 222.7646,-86.9478 79.6909,-57.9569 159.3632,-134.0314 239.0543,-228.2116 7.2447,-18.1118 5.4197,-30.782 -5.4472,-38.0266 -10.8669,-10.8672 -19.8877,-12.692 -27.1324,-5.4473 -50.7125,54.3347 -96.0231,99.6455 -135.8686,135.8686 -36.2234,32.6009 -74.2346,48.8694 -114.0799,48.8694 -50.7125,0 -76.0533,-36.1865 -76.0533,-108.6329 0,-57.9571 10.8454,-130.4336 32.5794,-217.3692 21.7337,-90.558 48.8996,-182.9007 81.5005,-277.0809 36.2231,-97.8027 76.0591,-195.62 119.5271,-293.4227 47.09,-97.8026 94.1739,-188.3722 141.2641,-271.6855 0,-32.601 -14.4434,-48.8692 -43.4221,-48.8692 z m 934.5323,0 c -155.7598,0 -273.4951,32.5884 -353.1862,97.7902 -79.6909,61.5794 -119.5272,139.4268 -119.5272,233.6072 0,65.2018 14.4952,126.7809 43.4739,184.7377 32.6009,57.9572 67.0141,115.9385 103.2375,173.8956 36.2231,54.3346 68.8115,112.3159 97.7902,173.8952 32.6009,57.9572 48.9211,121.3092 48.9211,190.1335 0,76.0686 -27.1659,141.2975 -81.5005,195.6322 -50.7127,50.7124 -123.1889,76.0532 -217.3694,76.0532 -68.824,0 -124.9803,-19.918 -168.4483,-59.7635 -43.4678,-43.4678 -65.1588,-97.7993 -65.1588,-163.0011 0,-39.8453 5.4229,-70.661 16.2897,-92.3947 10.8669,-25.3562 27.1353,-48.8723 48.8691,-70.6063 7.2447,-10.8669 5.4717,-21.7643 -5.3952,-32.6312 -7.2447,-10.8669 -16.317,-12.6398 -27.1842,-5.3954 -25.3562,18.1118 -48.924,41.6276 -70.6578,70.6062 -21.734,28.9785 -41.652,57.9691 -59.7636,86.9475 -18.1118,28.9787 -32.607,56.1446 -43.4738,81.5006 -10.8672,25.3564 -16.2897,45.2745 -16.2897,59.7635 0,47.0903 34.4132,90.5761 103.2372,130.4217 72.4464,39.8455 170.2637,59.7636 293.4226,59.7636 170.2489,0 307.9025,-36.2383 412.9499,-108.6848 105.047,-72.4462 157.5537,-173.8615 157.5537,-304.2648 0,-76.0687 -16.2684,-143.0705 -48.8693,-201.0277 -32.6009,-61.5796 -68.8391,-117.7358 -108.6844,-168.4482 -36.2234,-54.335 -70.6366,-106.8414 -103.2375,-157.5538 -28.9787,-54.3349 -43.4739,-110.4912 -43.4739,-168.4483 0,-68.824 18.0932,-121.3824 54.3163,-157.6056 39.8456,-39.8456 90.579,-59.7636 152.1586,-59.7636 47.09,0 83.3282,16.3202 108.6845,48.9211 28.9787,32.6008 43.4221,74.2618 43.4221,124.9743 0,47.0902 -5.4229,83.3284 -16.2897,108.6846 0,14.4894 5.4225,25.335 16.2897,32.5794 10.8668,3.6225 19.9395,1.7982 27.1841,-5.4472 18.1116,-32.6009 36.2566,-74.2617 54.3682,-124.9743 21.7337,-50.7125 32.5793,-95.9713 32.5793,-135.8168 0,-32.6009 -25.3408,-59.7666 -76.0532,-81.5005 -47.09,-21.734 -110.4941,-32.5795 -190.185,-32.5795 z m 2265.7242,0 c -105.0474,0 -206.4627,32.5884 -304.2651,97.7902 -97.8027,65.2018 -184.7226,146.6989 -260.7913,244.5015 -72.4464,97.8027 -132.2007,204.6405 -179.2907,320.5548 -43.4677,115.9142 -65.2108,226.4019 -65.2108,331.4493 0,115.9142 30.7636,211.9065 92.343,287.9751 65.2018,72.4465 159.421,108.6848 282.5802,108.6848 76.0684,0 161.1635,-25.3409 255.344,-76.0533 94.1802,-54.3349 181.1001,-126.8111 260.7912,-217.3692 83.3134,-94.1804 152.14,-201.0183 206.4747,-320.5548 57.9571,-123.1589 86.9477,-255.3894 86.9477,-396.6601 0,-101.4249 -30.7636,-190.1696 -92.3429,-266.2383 -61.5794,-76.0688 -155.7989,-114.08 -282.58,-114.08 z m 1016.0843,0 c -43.4677,0 -86.9536,9.0207 -130.4214,27.1323 -39.8455,18.1115 -79.6818,41.6793 -119.5271,70.6579 -36.2234,25.3562 -70.6366,54.3468 -103.2375,86.9477 -28.9786,28.9786 -54.3195,57.9173 -76.0532,86.896 -7.2447,14.4893 -5.4717,27.2115 5.3952,38.0784 14.4893,7.2447 28.9845,5.4199 43.4739,-5.4473 32.6009,-47.0899 67.014,-85.1531 103.2374,-114.1318 39.8456,-32.6008 77.9086,-48.8691 114.1317,-48.8691 28.9787,0 43.4739,14.4952 43.4739,43.4738 3.6225,28.9786 1.7982,70.6395 -5.4473,124.9744 -10.8668,72.4465 -25.362,152.1185 -43.4736,239.0543 -18.1118,83.3133 -39.8546,170.2332 -65.2108,260.7912 -25.3562,90.558 -54.3469,181.1275 -86.9478,271.6855 -28.9784,86.9358 -59.742,168.4329 -92.3429,244.5015 -18.1116,43.4678 -7.2662,65.2109 32.5794,65.2109 21.7337,0 47.1266,-1.8248 76.105,-5.4473 28.9787,-7.2444 56.1443,-14.4923 81.5005,-21.7369 28.9787,-10.8669 54.3195,-21.7123 76.0533,-32.5794 21.734,-14.4894 34.4044,-30.8093 38.0269,-48.9212 86.9355,-322.3864 181.103,-568.7024 282.5279,-738.9516 105.0474,-173.8713 220.9582,-260.7912 347.7392,-260.7912 39.845,0 68.835,9.0726 86.948,27.1842 21.734,18.1115 32.631,39.8025 32.631,65.1588 0,7.2446 3.598,14.4922 10.842,21.7369 7.245,3.6225 14.493,3.6225 21.737,0 18.112,-21.7338 39.855,-61.57 65.211,-119.5272 28.979,-57.957 43.474,-105.0407 43.474,-141.2639 0,-39.8455 -14.495,-72.434 -43.474,-97.7902 -28.978,-25.3563 -70.64,-38.0267 -124.974,-38.0267 -101.425,0 -195.593,48.8567 -282.5284,146.6594 -86.9358,97.8027 -166.6599,233.6831 -239.1063,407.5544 18.1118,-72.4464 32.607,-143.0981 43.4739,-211.9221 10.8671,-68.824 16.2897,-130.4031 16.2897,-184.7379 0,-50.7125 -10.8454,-88.7756 -32.5794,-114.1318 -21.7338,-28.9786 -61.5701,-43.422 -119.5272,-43.422 z m 1374.6657,0 c -239.072,115.9143 -425.635,228.1749 -559.661,336.8444 -3.622,10.8672 -1.798,23.5373 5.447,38.0267 7.245,10.8671 16.317,12.6919 27.185,5.4472 32.6,-28.9784 72.437,-59.7421 119.527,-92.3429 50.713,-32.6009 95.971,-59.7666 135.817,-81.5005 -43.468,65.2017 -86.955,143.049 -130.422,233.607 -39.846,86.9358 -77.857,177.5052 -114.08,271.6857 -32.601,90.558 -59.766,181.1275 -81.5,271.6855 -18.112,86.9358 -27.184,163.01 -27.184,228.2118 0,119.5365 63.403,179.2908 190.185,179.2908 72.446,0 146.696,-28.9907 222.764,-86.9478 79.692,-57.9569 159.415,-134.0314 239.107,-228.2116 7.244,-18.1118 5.42,-30.782 -5.448,-38.0266 -10.866,-10.8672 -19.939,-12.692 -27.184,-5.4473 -50.713,54.3347 -95.971,99.6455 -135.817,135.8686 -36.223,32.6009 -74.286,48.8694 -114.132,48.8694 -50.712,0 -76.053,-36.1865 -76.053,-108.6329 0,-57.9571 10.846,-130.4336 32.58,-217.3692 21.733,-90.558 48.899,-182.9007 81.5,-277.0809 36.223,-97.8027 76.111,-195.62 119.579,-293.4227 47.09,-97.8026 94.174,-188.3722 141.264,-271.6855 0,-32.601 -14.495,-48.8692 -43.474,-48.8692 z m 1064.954,0 c -105.047,0 -206.462,32.5884 -304.265,97.7902 -97.803,65.2018 -184.774,146.6989 -260.843,244.5015 -72.447,97.8027 -132.201,204.6405 -179.291,320.5548 -43.468,115.9142 -65.211,226.4019 -65.211,331.4493 0,115.9142 30.816,211.9065 92.395,287.9751 65.202,72.4465 159.37,108.6848 282.528,108.6848 76.069,0 161.216,-25.3409 255.396,-76.0533 94.18,-54.3349 181.1,-126.8111 260.792,-217.3692 83.313,-94.1804 152.14,-201.0183 206.474,-320.5548 57.958,-123.1589 86.948,-255.3894 86.948,-396.6601 0,-101.4249 -30.815,-190.1696 -92.395,-266.2383 -61.579,-76.0688 -155.747,-114.08 -282.528,-114.08 z m 1271.429,0 c -155.76,0 -273.495,32.5884 -353.187,97.7902 -79.691,61.5794 -119.527,139.4268 -119.527,233.6072 0,65.2018 14.495,126.7809 43.474,184.7377 32.602,57.9572 67.015,115.9385 103.238,173.8956 36.223,54.3346 68.811,112.3159 97.79,173.8952 32.6,57.9572 48.921,121.3092 48.921,190.1335 0,76.0686 -27.166,141.2975 -81.501,195.6322 -50.712,50.7124 -123.189,76.0532 -217.369,76.0532 -68.824,0 -124.98,-19.918 -168.448,-59.7635 -43.468,-43.4678 -65.159,-97.7993 -65.159,-163.0011 0,-39.8453 5.422,-70.661 16.29,-92.3947 10.866,-25.3562 27.135,-48.8723 48.869,-70.6063 7.245,-10.8669 5.471,-21.7643 -5.396,-32.6312 -7.244,-10.8669 -16.316,-12.6398 -27.184,-5.3954 -25.356,18.1118 -48.923,41.6276 -70.658,70.6062 -21.734,28.9785 -41.652,57.9691 -59.763,86.9475 -18.112,28.9787 -32.607,56.1446 -43.474,81.5006 -10.867,25.3564 -16.29,45.2745 -16.29,59.7635 0,47.0903 34.413,90.5761 103.238,130.4217 72.446,39.8455 170.264,59.7636 293.422,59.7636 170.25,0 307.903,-36.2383 412.95,-108.6848 105.047,-72.4462 157.554,-173.8615 157.554,-304.2648 0,-76.0687 -16.269,-143.0705 -48.87,-201.0277 -32.601,-61.5796 -68.839,-117.7358 -108.684,-168.4482 -36.223,-54.335 -70.637,-106.8414 -103.237,-157.5538 -28.979,-54.3349 -43.474,-110.4912 -43.474,-168.4483 0,-68.824 18.093,-121.3824 54.316,-157.6056 39.845,-39.8456 90.579,-59.7636 152.159,-59.7636 47.09,0 83.328,16.3202 108.684,48.9211 28.979,32.6008 43.474,74.2618 43.474,124.9743 0,47.0902 -5.474,83.3284 -16.342,108.6846 0,14.4894 5.475,25.335 16.342,32.5794 10.867,3.6225 19.888,1.7982 27.132,-5.4472 18.112,-32.6009 36.256,-74.2617 54.368,-124.9743 21.734,-50.7125 32.58,-95.9713 32.58,-135.8168 0,-32.6009 -25.341,-59.7666 -76.053,-81.5005 -47.09,-21.734 -110.494,-32.5795 -190.185,-32.5795 z m 1282.322,0 c -94.18,0 -190.172,32.5884 -287.975,97.7902 -97.803,61.5794 -188.372,143.0765 -271.685,244.5015 -83.314,101.4249 -152.141,217.3354 -206.475,347.739 -50.713,126.7811 -76.105,253.537 -76.105,380.3183 0,101.4249 27.217,181.149 81.552,239.1061 54.335,54.335 121.337,81.5006 201.028,81.5006 126.781,0 246.289,-34.4135 358.581,-103.2375 112.292,-68.824 213.707,-161.2185 304.265,-277.1327 7.245,-14.4894 5.472,-27.1598 -5.395,-38.0267 -10.867,-10.8671 -23.538,-12.6401 -38.027,-5.3954 -61.579,72.4465 -130.406,132.2007 -206.475,179.2907 -72.447,43.468 -139.5,65.2108 -201.079,65.2108 -134.026,0 -201.028,-85.1469 -201.028,-255.3957 0,-231.8285 34.413,-420.1637 103.237,-565.0564 72.447,-144.8928 166.615,-217.3693 282.529,-217.3693 90.558,0 152.136,28.9906 184.738,86.9477 36.222,57.9571 41.697,124.9589 16.341,201.0276 0,25.3562 10.845,34.4289 32.579,27.1842 18.112,-7.2447 38.03,-21.7399 59.764,-43.4739 25.356,-21.734 47.099,-45.3018 65.211,-70.658 21.734,-25.3563 38.054,-50.6971 48.921,-76.0533 14.489,-25.3562 21.737,-48.924 21.737,-70.6579 0,-57.9571 -23.568,-110.4637 -70.658,-157.5538 -47.09,-47.0902 -112.267,-70.6061 -195.581,-70.6061 z m 1211.613,0 c -105.047,0 -206.462,32.5884 -304.264,97.7902 -97.803,65.2018 -184.723,146.6989 -260.792,244.5015 -72.446,97.8027 -132.2,204.6405 -179.29,320.5548 -43.468,115.9142 -65.211,226.4019 -65.211,331.4493 0,115.9142 30.763,211.9065 92.343,287.9751 65.202,72.4465 159.369,108.6848 282.528,108.6848 76.069,0 161.215,-25.3409 255.396,-76.0533 94.18,-54.3349 181.1,-126.8111 260.791,-217.3692 83.313,-94.1804 152.14,-201.0183 206.475,-320.5548 57.957,-123.1589 86.948,-255.3894 86.948,-396.6601 0,-101.4249 -30.764,-190.1696 -92.343,-266.2383 -61.581,-76.0688 -155.8,-114.08 -282.581,-114.08 z m 2841.727,0 c -239.072,115.9143 -425.635,228.1749 -559.661,336.8444 -3.622,10.8672 -1.798,23.5373 5.448,38.0267 7.244,10.8671 16.265,12.6919 27.132,5.4472 32.6,-28.9784 72.489,-59.7421 119.579,-92.3429 50.712,-32.6009 95.971,-59.7666 135.817,-81.5005 -43.468,65.2017 -86.954,143.049 -130.422,233.607 -39.845,86.9358 -77.856,177.5052 -114.08,271.6857 -32.601,90.558 -59.767,181.1275 -81.5,271.6855 -18.112,86.9358 -27.185,163.01 -27.185,228.2118 0,119.5365 63.404,179.2908 190.186,179.2908 72.446,0 146.696,-28.9907 222.764,-86.9478 79.691,-57.9569 159.363,-134.0314 239.055,-228.2116 7.244,-18.1118 5.472,-30.782 -5.396,-38.0266 -10.866,-10.8672 -19.939,-12.692 -27.184,-5.4473 -50.713,54.3347 -95.972,99.6455 -135.817,135.8686 -36.223,32.6009 -74.286,48.8694 -114.132,48.8694 -50.712,0 -76.053,-36.1865 -76.053,-108.6329 0,-57.9571 10.846,-130.4336 32.58,-217.3692 21.734,-90.558 48.899,-182.9007 81.5,-277.0809 36.223,-97.8027 76.111,-195.62 119.579,-293.4227 47.09,-97.8026 94.174,-188.3722 141.264,-271.6855 0,-32.601 -14.495,-48.8692 -43.474,-48.8692 z m 1064.954,0 c -105.048,0 -206.463,32.5884 -304.265,97.7902 -97.803,65.2018 -184.775,146.6989 -260.843,244.5015 -72.447,97.8027 -132.201,204.6405 -179.291,320.5548 -43.468,115.9142 -65.211,226.4019 -65.211,331.4493 0,115.9142 30.815,211.9065 92.395,287.9751 65.201,72.4465 159.369,108.6848 282.528,108.6848 76.069,0 161.164,-25.3409 255.344,-76.0533 94.181,-54.3349 181.153,-126.8111 260.843,-217.3692 83.314,-94.1804 152.141,-201.0183 206.475,-320.5548 57.958,-123.1589 86.948,-255.3894 86.948,-396.6601 0,-101.4249 -30.816,-190.1696 -92.395,-266.2383 -61.579,-76.0688 -155.747,-114.08 -282.528,-114.08 z M 8497.9442,2581.5016 c 83.3136,0 146.7175,36.2382 190.1852,108.6847 43.4678,72.4464 65.1591,162.9641 65.1591,271.6336 0,206.4723 -39.8363,369.5185 -119.5272,489.0549 -76.0689,115.9142 -170.2364,173.8435 -282.5282,173.8435 -72.4464,0 -132.2007,-30.7637 -179.2907,-92.343 -43.4678,-65.2018 -65.2108,-161.194 -65.2108,-287.9754 0,-217.3391 36.2382,-382.1583 108.6847,-494.4501 72.4462,-112.2919 166.6139,-168.4482 282.5279,-168.4482 z m 3455.6518,0 c 83.314,0 146.718,36.2382 190.186,108.6847 43.468,72.4464 65.21,162.9641 65.21,271.6336 0,206.4723 -39.836,369.5185 -119.527,489.0549 -76.068,115.9142 -170.288,173.8435 -282.58,173.8435 -72.446,0 -132.2,-30.7637 -179.29,-92.343 -43.468,-65.2018 -65.211,-161.194 -65.211,-287.9754 0,-217.3391 36.238,-382.1583 108.684,-494.4501 72.447,-112.2919 166.614,-168.4482 282.528,-168.4482 z m 3765.417,0 c 83.313,0 146.665,36.2382 190.133,108.6847 43.468,72.4464 65.211,162.9641 65.211,271.6336 0,206.4723 -39.836,369.5185 -119.527,489.0549 -76.069,115.9142 -170.236,173.8435 -282.528,173.8435 -72.446,0 -132.2,-30.7637 -179.291,-92.343 -43.467,-65.2018 -65.211,-161.194 -65.211,-287.9754 0,-217.3391 36.187,-382.1583 108.633,-494.4501 72.447,-112.2919 166.666,-168.4482 282.58,-168.4482 z m 3906.629,0 c 83.313,0 146.717,36.2382 190.184,108.6847 43.469,72.4464 65.211,162.9641 65.211,271.6336 0,206.4723 -39.835,369.5185 -119.527,489.0549 -76.068,115.9142 -170.289,173.8435 -282.58,173.8435 -72.447,0 -132.201,-30.7637 -179.291,-92.343 -43.468,-65.2018 -65.21,-161.194 -65.21,-287.9754 0,-217.3391 36.238,-382.1583 108.684,-494.4501 72.446,-112.2919 166.615,-168.4482 282.529,-168.4482 z m -2249.435,10.8425 c 61.579,0 108.663,27.1657 141.264,81.5007 32.601,54.3346 48.921,124.986 48.921,211.9219 0,130.4035 -18.146,246.3138 -54.368,347.739 -32.602,97.8024 -77.86,181.1245 -135.817,249.9485 -54.335,65.2018 -119.512,115.9355 -195.58,152.1586 -76.069,32.6009 -157.618,48.869 -244.554,48.869 -105.047,0 -186.544,-19.918 -244.501,-59.7635 10.867,-32.6009 21.764,-63.3643 32.631,-92.343 10.867,-32.6009 21.712,-63.4163 32.579,-92.3947 97.803,-268.0519 204.693,-476.3569 320.607,-624.8717 115.915,-148.5152 215.505,-222.7648 298.818,-222.7648 z"
   />
 </defs>
 <g
  style="fill:#edb850;stroke-width:0">
  <use xlink:href="#pathHistorioscopioText" />
 </g>
 <g
  style="fill:#373435;stroke-width:0"
  transform="translate(74,-92)"
  >
  <use xlink:href="#pathHistorioscopioText" />
 </g>
</svg>
